HIERARCHY
ROOT pelvis
{
  OFFSET 0 100 0
  CHANNELS 6 Xposition Yposition Zposition Zrotation Xrotation Yrotation
  JOINT pelvis_right_femur
  {
    OFFSET -10.78128 -3.44521 -0.5502486
    CHANNELS 3 Zrotation Xrotation Yrotation
    JOINT right_femur_tibia
    {
      OFFSET -0.8047443 -44.0398 -0.1307829
      CHANNELS 3 Zrotation Xrotation Yrotation
      JOINT right_tibia_foot
      {
        OFFSET 3.006224 -47.83518 -5
        CHANNELS 3 Zrotation Xrotation Yrotation
        End Site
        {
          OFFSET 0 -5 15
        }
      }
    }
  }
  JOINT pelvis_left_femur
  {
    OFFSET 10.78128 -3.44521 -0.5502486
    CHANNELS 3 Zrotation Xrotation Yrotation
    JOINT left_femur_tibia
    {
      OFFSET 0.8047443 -44.0398 -0.1307829
      CHANNELS 3 Zrotation Xrotation Yrotation
      JOINT left_tibia_foot
      {
        OFFSET -4.370144 -48.10324 -4.275266
        CHANNELS 3 Zrotation Xrotation Yrotation
        End Site
        {
          OFFSET 0 -5 15
        }
      }
    }
  }
  JOINT pelvis_spine1
  {
    OFFSET 0 6.468898 -3.129235
    CHANNELS 3 Zrotation Xrotation Yrotation
    JOINT spine1
    {
      OFFSET 0 23.15396 4.99043
      CHANNELS 3 Zrotation Xrotation Yrotation
      JOINT spine2
      {
        OFFSET 0 20.79997 -5.064912
        CHANNELS 3 Zrotation Xrotation Yrotation
        JOINT neck
        {
          OFFSET 0 14.38658 9.616178
          CHANNELS 3 Zrotation Xrotation Yrotation
          End Site
          {
            OFFSET 0 20 0
          }
        }
      }
      JOINT right_manubrium
      {
        OFFSET -5.722621 16.35077 3.967754
        CHANNELS 3 Zrotation Xrotation Yrotation
        JOINT right_clavicle
        {
          OFFSET -13.16364 1.694482 -4.693211
          CHANNELS 3 Zrotation Xrotation Yrotation
          JOINT right_humerus
          {
            OFFSET -28.5034 -0.3100689 -2.792744
            CHANNELS 3 Zrotation Xrotation Yrotation
            JOINT right_radius
            {
              OFFSET -25.15693 0.02248979 -1.271978
              CHANNELS 3 Zrotation Xrotation Yrotation
              End Site
              {
                OFFSET -15 0 0
              }
            }
          }
        }
      }
      JOINT left_manubrium
      {
        OFFSET 5.722621 16.35077 3.967754
        CHANNELS 3 Zrotation Xrotation Yrotation
        JOINT left_clavicle
        {
          OFFSET 13.16364 1.694482 -4.693211
          CHANNELS 3 Zrotation Xrotation Yrotation
          JOINT left_humerus
          {
            OFFSET 29.39168 -1.063119 -2.237045
            CHANNELS 3 Zrotation Xrotation Yrotation
            JOINT left_radius
            {
              OFFSET 24.59957 -0.9528479 0.9047498
              CHANNELS 3 Zrotation Xrotation Yrotation
              End Site
              {
                OFFSET 15 -0 -0
              }
            }
          }
        }
      }
    }
  }
}
MOTION
Frames: 19
Frame Time: 0.0416666666667
-1663.575 107.3116 2157.887 -11.02552 3.230237 -107.4215 4.216349 5.687801 -8.776248 -0 16.22745 -0 -20.4157 10.49612 5.278169 -0.758208 -6.624464 -3.52082 -0 19.04148 -0 6.877301 -6.615092 17.17894 0.07711552 -2.098034 4.671371 -0.662098 16.12666 -4.990715 1.100128 23.23732 3.628016 2.676942 -20.54258 4.136446 -7.709685 -26.69516 11.13906 96.69026 12.97132 -12.16531 -0 0 13.82081 -26.35448 4.646796 13.0935 4.347775 -26.24659 -10.33439 -88.53011 3.036977 22.36489 0 0 -10.6862 20.50498 13.15433 -14.23914
-1670.251 107.3035 2156.447 -11.00976 3.283711 -107.6971 4.216375 5.690119 -8.775889 -0 16.22809 -0 -20.41521 10.49486 5.278146 -0.7579278 -6.626863 -3.520882 -0 19.03941 -0 6.877333 -6.614839 17.17948 0.07700676 -2.098005 4.671707 -0.6622293 16.12649 -4.99042 1.100128 23.23729 3.62801 2.676915 -20.54254 4.13647 -7.709521 -26.69562 11.13902 96.68942 12.97174 -12.1643 -0 0 13.8221 -26.35456 4.646828 13.09386 4.347736 -26.24597 -10.33406 -88.53072 3.037475 22.36618 0 0 -10.685 20.50428 13.15449 -14.2382
-1676.919 107.2954 2154.974 -10.99384 3.337099 -107.9727 4.21629 5.692274 -8.775563 -0 16.2294 -0 -20.4147 10.49395 5.278127 -0.7577649 -6.628915 -3.521015 -0 19.03723 -0 6.877353 -6.614694 17.18001 0.07686069 -2.097977 4.671982 -0.6623837 16.12631 -4.990123 1.100137 23.23728 3.628028 2.676896 -20.54247 4.136522 -7.709359 -26.69599 11.13898 96.68866 12.97208 -12.16333 -0 0 13.82328 -26.35472 4.646839 13.09423 4.347695 -26.24534 -10.33377 -88.53126 3.037975 22.36731 0 0 -10.68377 20.50356 13.15463 -14.23726
-1683.58 107.2872 2153.468 -10.97773 3.390405 -108.2483 4.216105 5.694124 -8.775289 -0 16.23126 -0 -20.41422 10.49345 5.278112 -0.7577253 -6.630494 -3.521209 -0 19.03508 -0 6.877359 -6.61466 17.1805 0.07668903 -2.097952 4.672179 -0.6625495 16.12615 -4.989846 1.100155 23.2373 3.628069 2.676888 -20.54236 4.136599 -7.709211 -26.69626 11.13892 96.68803 12.97233 -12.16246 -0 0 13.82426 -26.35494 4.646831 13.09458 4.347654 -26.24474 -10.33354 -88.5317 3.038441 22.36821 0 0 -10.68261 20.50289 13.15473 -14.23639
-1690.234 107.279 2151.93 -10.96144 3.443631 -108.5238 4.215838 5.695555 -8.775086 -0 16.23353 -0 -20.41379 10.49337 5.278103 -0.7578064 -6.63151 -3.521447 -0 19.03312 -0 6.877351 -6.614736 17.1809 0.07650476 -2.09793 4.672288 -0.6627147 16.12602 -4.989607 1.100179 23.23735 3.628128 2.67689 -20.54224 4.136692 -7.709086 -26.69641 11.13885 96.68757 12.97248 -12.16175 -0 0 13.82499 -26.35521 4.646804 13.09489 4.347615 -26.24421 -10.33338 -88.53201 3.038842 22.36882 0 0 -10.68158 20.5023 13.1548 -14.23564
-1696.88 107.2709 2150.36 -10.94495 3.49678 -108.7993 4.215509 5.696485 -8.774962 -0 16.23602 -0 -20.41343 10.4937 5.278099 -0.7579973 -6.631918 -3.52171 -0 19.03146 -0 6.877331 -6.614912 17.1812 0.07632119 -2.097914 4.672306 -0.662868 16.12591 -4.98942 1.100209 23.23742 3.628201 2.676901 -20.5421 4.136796 -7.708992 -26.69642 11.13878 96.68731 12.97252 -12.16124 -0 0 13.82544 -26.35551 4.646761 13.09515 4.347583 -26.24379 -10.33329 -88.53217 3.039155 22.36912 0 0 -10.68076 20.50183 13.15481 -14.23506
-1703.518 107.2628 2148.757 -10.92826 3.549854 -109.0748 4.215145 5.696873 -8.774925 -0 16.23856 -0 -20.41318 10.4944 5.278101 -0.75828 -6.631717 -3.52198 -0 19.03022 -0 6.8773 -6.615171 17.18139 0.07615096 -2.097905 4.672235 -0.6629992 16.12584 -4.989296 1.100241 23.23751 3.628282 2.67692 -20.54196 4.136902 -7.708934 -26.69632 11.13871 96.68726 12.97244 -12.16096 -0 0 13.82557 -26.3558 4.646706 13.09533 4.347558 -26.24349 -10.33328 -88.53219 3.03936 22.36909 0 0 -10.68019 20.50152 13.15479 -14.23468
-1710.148 107.2548 2147.122 -10.91134 3.602854 -109.3501 4.214772 5.696716 -8.774972 -0 16.24096 -0 -20.41304 10.49539 5.278109 -0.758631 -6.630947 -3.522237 -0 19.02946 -0 6.877261 -6.615491 17.18144 0.07600526 -2.097902 4.672084 -0.6631002 16.12581 -4.989242 1.100273 23.2376 3.628364 2.676946 -20.54183 4.137004 -7.708914 -26.69611 11.13865 96.6874 12.97227 -12.16092 -0 0 13.8254 -26.35608 4.646643 13.09543 4.347543 -26.24334 -10.33335 -88.53206 3.039449 22.36876 0 0 -10.6799 20.50137 13.15473 -14.23452
-1716.771 107.2469 2145.454 -10.89417 3.655782 -109.6255 4.214416 5.696047 -8.775097 -0 16.24307 -0 -20.41303 10.49662 5.278121 -0.7590231 -6.629686 -3.522465 -0 19.02921 -0 6.877218 -6.615848 17.18137 0.0758931 -2.097906 4.671867 -0.6631654 16.12583 -4.989256 1.100304 23.23769 3.628444 2.676977 -20.54172 4.137093 -7.708932 -26.69581 11.1386 96.68773 12.97202 -12.16111 -0 0 13.82496 -26.35632 4.646576 13.09544 4.347537 -26.24333 -10.33349 -88.5318 3.039421 22.36817 0 0 -10.6799 20.50139 13.15463 -14.23459
-1723.385 107.2392 2143.754 -10.87673 3.708638 -109.9007 4.214102 5.694936 -8.775288 -0 16.24475 -0 -20.41312 10.49796 5.278137 -0.7594272 -6.628043 -3.522648 -0 19.02946 -0 6.877173 -6.616215 17.18119 0.07582077 -2.097915 4.671602 -0.6631919 16.12588 -4.989337 1.10033 23.23778 3.628514 2.67701 -20.54163 4.137165 -7.708986 -26.69545 11.13856 96.6882 12.9717 -12.1615 -0 0 13.82427 -26.35651 4.646511 13.09536 4.347541 -26.24347 -10.33369 -88.53144 3.039282 22.36735 0 0 -10.68017 20.50157 13.15451 -14.23486
-1729.991 107.2316 2142.022 -10.85902 3.761419 -110.176 4.213849 5.693478 -8.775528 -0 16.24591 -0 -20.41332 10.49934 5.278155 -0.7598149 -6.626147 -3.522776 -0 19.03018 -0 6.87713 -6.616567 17.1809 0.07579153 -2.09793 4.671309 -0.6631794 16.12596 -4.989475 1.100351 23.23786 3.62857 2.677043 -20.54158 4.137216 -7.709069 -26.69504 11.13854 96.68879 12.97135 -12.16206 -0 0 13.82341 -26.35664 4.646452 13.09522 4.347553 -26.24373 -10.33393 -88.531 3.039047 22.36639 0 0 -10.68069 20.50188 13.15437 -14.23531
-1736.588 107.2241 2140.257 -10.84101 3.814124 -110.4513 4.213672 5.691791 -8.775799 -0 16.24649 -0 -20.4136 10.50065 5.278174 -0.7601601 -6.624142 -3.522843 -0 19.0313 -0 6.877091 -6.61688 17.18055 0.07580553 -2.097949 4.67101 -0.6631306 16.12607 -4.989657 1.100365 23.23792 3.62861 2.677073 -20.54155 4.137242 -7.709176 -26.69463 11.13854 96.68944 12.97099 -12.16275 -0 0 13.82243 -26.3567 4.646403 13.09501 4.347574 -26.24409 -10.33418 -88.53052 3.038736 22.36535 0 0 -10.6814 20.50232 13.15423 -14.2359
-1743.177 107.2167 2138.46 -10.82269 3.866749 -110.7265 4.21358 5.689999 -8.77608 -0 16.24647 -0 -20.41395 10.5018 5.278193 -0.7604409 -6.622171 -3.522846 -0 19.03272 -0 6.877059 -6.617134 17.18015 0.07585991 -2.09797 4.670726 -0.6630503 16.1262 -4.989871 1.100372 23.23797 3.628631 2.677099 -20.54156 4.137244 -7.709296 -26.69424 11.13855 96.69011 12.97064 -12.16351 -0 0 13.82142 -26.3567 4.646367 13.09475 4.347601 -26.24453 -10.33445 -88.53004 3.038375 22.3643 0 0 -10.68225 20.50282 13.15409 -14.23658
-1749.757 107.2094 2136.631 -10.80405 3.919292 -111.0018 4.213575 5.688233 -8.776353 -0 16.24588 -0 -20.41433 10.50272 5.278211 -0.7606405 -6.620368 -3.522789 -0 19.03433 -0 6.877036 -6.617314 17.17973 0.07594914 -2.097992 4.670475 -0.6629456 16.12633 -4.990099 1.10037 23.23799 3.628632 2.677119 -20.54159 4.137221 -7.709423 -26.6939 11.13858 96.69076 12.97033 -12.16428 -0 0 13.82044 -26.35662 4.646345 13.09448 4.347631 -26.24501 -10.33469 -88.52958 3.03799 22.36333 0 0 -10.68318 20.50337 13.15397 -14.23731
-1756.328 107.2022 2134.77 -10.7851 3.971747 -111.2772 4.213655 5.686612 -8.776597 -0 16.24478 -0 -20.41472 10.50336 5.278225 -0.7607489 -6.61885 -3.522677 -0 19.03601 -0 6.877023 -6.61741 17.17933 0.07606554 -2.098013 4.670274 -0.6628248 16.12646 -4.990325 1.100362 23.23799 3.628615 2.677132 -20.54166 4.137177 -7.709545 -26.69363 11.13862 96.69132 12.97008 -12.16501 -0 0 13.81956 -26.35649 4.646339 13.09419 4.347663 -26.24549 -10.33491 -88.52917 3.037609 22.36249 0 0 -10.68412 20.50392 13.15387 -14.23802
-1762.89 107.1951 2132.877 -10.76583 4.024111 -111.5526 4.213809 5.685243 -8.776799 -0 16.24329 -0 -20.41509 10.50369 5.278236 -0.7607623 -6.617711 -3.522521 -0 19.03764 -0 6.877021 -6.617421 17.17897 0.07619987 -2.098033 4.670135 -0.6626968 16.12658 -4.990533 1.100347 23.23797 3.628581 2.677137 -20.54174 4.137116 -7.709656 -26.69344 11.13866 96.69178 12.9699 -12.16566 -0 0 13.81884 -26.35631 4.646348 13.09393 4.347695 -26.24595 -10.33508 -88.52885 3.037258 22.36184 0 0 -10.685 20.50443 13.15379 -14.23868
-1769.442 107.1879 2130.951 -10.74626 4.07638 -111.8282 4.214025 5.684209 -8.776945 -0 16.2415 -0 -20.41541 10.50369 5.278243 -0.7606842 -6.617012 -3.522334 -0 19.03912 -0 6.877029 -6.617348 17.17867 0.07634206 -2.098048 4.670063 -0.6625709 16.12668 -4.990711 1.100328 23.23793 3.628533 2.677135 -20.54184 4.137042 -7.709749 -26.69335 11.13872 96.69211 12.9698 -12.16618 -0 0 13.81831 -26.3561 4.646371 13.09369 4.347723 -26.24634 -10.3352 -88.52863 3.03696 22.36141 0 0 -10.68576 20.50486 13.15375 -14.23924
-1775.985 107.1807 2128.994 -10.72638 4.12855 -112.1038 4.214283 5.683567 -8.777028 -0 16.23957 -0 -20.41567 10.50339 5.278245 -0.7605238 -6.616783 -3.52213 -0 19.04033 -0 6.877046 -6.6172 17.17845 0.07648192 -2.09806 4.670062 -0.6624558 16.12676 -4.990846 1.100304 23.23787 3.628476 2.677125 -20.54194 4.136962 -7.709816 -26.69335 11.13877 96.69228 12.96979 -12.16654 -0 0 13.81801 -26.35587 4.646406 13.09351 4.347747 -26.24665 -10.33525 -88.52853 3.036734 22.36123 0 0 -10.68636 20.5052 13.15374 -14.23966
-1782.519 107.1734 2127.004 -10.70622 4.180618 -112.3795 4.214566 5.683345 -8.777044 -0 16.23764 -0 -20.41584 10.50281 5.278242 -0.7602959 -6.617019 -3.521923 -0 19.04123 -0 6.877071 -6.616992 17.17833 0.07660989 -2.098066 4.670128 -0.6623587 16.12681 -4.990932 1.10028 23.23781 3.628413 2.677109 -20.54205 4.136881 -7.709856 -26.69344 11.13882 96.69229 12.96986 -12.16672 -0 0 13.81795 -26.35565 4.64645 13.09338 4.347765 -26.24686 -10.33525 -88.52854 3.036592 22.36129 0 0 -10.68676 20.50542 13.15377 -14.23992
